# xmcd
#
# Track frame offsets:
#	150
#	16375
#	34358
#	53785
#	72554
#	85194
#	102881
#	120989
#	142423
#	159782
#	174881
#	193044
#	210308
#	226807
#	244898
#
# Disc length: 3548 seconds
#
# Revision: 5
# Processed by: cddbd v1.5.2PL0 Copyright (c) Steve Scherf et al.
# Submitted via: audiograbber 1.83.01
#
DISCID=c50dda0f
DTITLE=Various Artist - Chartbuster Best of 2000 Series Country Male Vol. 3
DYEAR=2000
DGENRE=Karaoke
TTITLE0=Chad Brock - Yes
TTITLE1=Brad Paisley - We Danced
TTITLE2=Travis Tritt - Best Of Intentions
TTITLE3=Kenny Chesney - I Lost It
TTITLE4=Alan Jackson - WWW.Memory
TTITLE5=John Michael Montgomery - The Little Girl
TTITLE6=Clint Black and Steve Wariner - Been There
TTITLE7=Kenny Chesney - What I Need To Do
TTITLE8=Darryl Worley - When You Need My Love
TTITLE9=Tracy Lawrence - Lonely
TTITLE10=Steve Holy - Blue Moon
TTITLE11=Mark Wills - Almost Doesn't Count
TTITLE12=John Michael Montgomery - Home To You
TTITLE13=Billy Ray Cyrus - You Won't Be Lonely Now
TTITLE14=Garth Brooks - When You Come Back To Me Again
EXTD=
EXTT0=
EXTT1=
EXTT2=
EXTT3=
EXTT4=
EXTT5=
EXTT6=
EXTT7=
EXTT8=
EXTT9=
EXTT10=
EXTT11=
EXTT12=
EXTT13=
EXTT14=
PLAYORDER=
